# xmcd
#
# Track frame offsets: 
#        150
#        21740
#        38097
#        54307
#        70555
#        88112
#        101957
#        117685
#        132680
#        153080
#        174752
#
# Disc length: 2562 seconds
#
# Revision: 3
# Processed by: cddbd v1.5.2PL0 Copyright (c) Steve Scherf et al.
# Submitted via: ExactAudioCopy v0.99pb5
#
DISCID=950a000b
DTITLE=Various Artist - Amazing Grace 3 - A Country Salute to Gospel
DYEAR=2004
DGENRE=Christian
TTITLE0=Keith Urban - I'll Fly Away
TTITLE1=Cyndi Thomson - 'Tis So Sweet To Trust In Jesus
TTITLE2=Josh Turner - Softly and Tenderly
TTITLE3=Sara Evans - Sweet By and By
TTITLE4=Dierks Bentley - It Is No Secret
TTITLE5=Buddy Jewell - Leaning on the Everlasting Arms
TTITLE6=Steven Curtis Chapman and Mark Miller - Nothing But the Blood
TTITLE7=Jamie O'Neal - I Need Thee Every Hour
TTITLE8=Trace Adkins - Victory In Jesus
TTITLE9=Joe Nichols - Just A Closer Walk With Thee
TTITLE10=The Isaacs - He Touched Me
EXTD=YEAR: 2004
EXTT0=
EXTT1=
EXTT2=
EXTT3=
EXTT4=
EXTT5=
EXTT6=
EXTT7=
EXTT8=
EXTT9=
EXTT10=
PLAYORDER=
